# generated from PmQm by Jehee Lee
:FULLY-SPECIFIED
:DEGREES
35
root -145.3392679 39.1762 -71.77866074 -170.1987506 43.02865816 176.134047
RightUpLeg -8.051954682 1.663162462 -5.682555884
RightLeg 33.41826375 0 0
RightFoot -4.535514953 9.063850237 4.86882083
RightToes 2.15368e-009 -1.59028e-015 9.93923e-017
Spine -5.26557 3.69612 1.8054
Spine1 16.9794 6.06601 -7.60169
HEad -12.984 -6.24635 3.74921
LeftShoulder1 9.93923e-017 0 1.22299e-017
LeftArm 29.058 65.4956 -46.7399
LeftForeArm -52.3678 -67.0022 55.8998
LeftHand 1.15908 8.90634 -5.99227
RightShoulder 1.98785e-016 -4.96962e-017 1.55301e-017
RightArm 8.34758 -42.9016 86.0722
RightForeArm -96.9964 62.2649 -111.61
RightHand 1.37523 -12.6143 -3.77672
LeftUpLeg -29.14797483 -4.864348003 0.6769861973
LeftLeg 29.99595624 0 0
LeftFoot -13.26845221 -5.826985877 -4.012366697
LeftToes -1.72801e-010 9.79356e-011 1.69352e-011
36
root -144.5497138 38.17 -72.72600171 -172.4714891 42.98163248 174.1070002
RightUpLeg -10.83703489 2.256052394 -8.961871468
RightLeg 45.49429172 0 0
RightFoot -6.686687199 11.29799739 2.554566161
RightToes 2.15368e-009 -1.59028e-015 9.93923e-017
Spine -3.21654 3.06133 -0.248936
Spine1 16.6112 5.5897 -8.55947
HEad -14.3671 -6.19554 3.34759
LeftShoulder1 9.93923e-017 0 1.22299e-017
LeftArm 24.97 62.801 -51.73
LeftForeArm -53.4288 -67.3151 56.7807
LeftHand 1.14777 8.82935 -6.2881
RightShoulder 1.98785e-016 -4.96962e-017 1.55301e-017
RightArm 8.8772 -43.0489 87.1322
RightForeArm -90.8428 62.7772 -103.081
RightHand 1.28622 -12.2315 -3.00919
LeftUpLeg -29.32247169 -6.786881872 -0.2791500848
LeftLeg 36.51288282 0 0
LeftFoot -17.98899591 -3.319903832 -0.8208202141
LeftToes -1.72801e-010 9.79356e-011 1.69352e-011
37
root -143.7881284 37.1366 -73.58672288 -175.3818068 42.43955293 171.8882037
RightUpLeg -13.8789104 2.941955627 -12.34696047
RightLeg 58.27919142 0 0
RightFoot -8.833570081 13.02168956 -0.7748503802
RightToes 2.15368e-009 -1.59028e-015 9.93923e-017
Spine -0.881644 2.31567 -2.9674
Spine1 17.0236 4.71707 -8.71112
HEad -17.3924 -6.06599 2.83824
LeftShoulder1 9.93923e-017 0 1.22299e-017
LeftArm 21.2374 57.2788 -57.3505
LeftForeArm -50.2218 -66.2922 53.9736
LeftHand 1.12909 8.61631 -6.30699
RightShoulder 1.98785e-016 -4.96962e-017 1.55301e-017
RightArm 8.43092 -42.8921 88.8134
RightForeArm -78.5752 62.4117 -89.5283
RightHand 1.2157 -11.7978 -2.63595
LeftUpLeg -29.32179175 -8.44547996 -1.30618956
LeftLeg 44.23959891 0 0
LeftFoot -23.65054864 -1.71381225 0.9873869191
LeftToes -1.72801e-010 9.79356e-011 1.69352e-011
38
root -142.9653721 36.3445 -74.45308731 -177.4232307 41.63781513 170.6857851
RightUpLeg -17.03105108 3.075716105 -13.25087171
RightLeg 68.78381106 0.64826362 -1.782511524
RightFoot -10.201 12.73822411 -2.248079217
RightToes 2.15368e-009 -1.59028e-015 9.93923e-017
Spine 0.795444 1.54263 -4.98064
Spine1 17.8035 3.69807 -8.69124
HEad -19.9474 -6.15656 3.1022
LeftShoulder1 9.93923e-017 0 1.22299e-017
LeftArm 18.2894 50.1309 -62.4558
LeftForeArm -43.9738 -64.506 50.3136
LeftHand 1.10488 8.30864 -6.13745
RightShoulder 1.98785e-016 -4.96962e-017 1.55301e-017
RightArm 7.33483 -43.8989 90.7063
RightForeArm -62.1456 60.0221 -74.3814
RightHand 1.185 -11.3888 -3.02678
LeftUpLeg -28.32308097 -8.79299668 -1.774859413
LeftLeg 49.8150471 0 0
LeftFoot -28.46345371 -2.114188694 0.8213956779
LeftToes -1.72801e-010 9.79356e-011 1.69352e-011
